<?xml version="1.0" standalone="no"?>
<!DOCTYPE svg PUBLIC "-//W3C//DTD SVG 1.1//EN" "http://www.w3.org/Graphics/SVG/1.1/DTD/svg11.dtd" >
<svg xmlns="http://www.w3.org/2000/svg" xmlns:xlink="http://www.w3.org/1999/xlink" version="1.1">
<metadata>
Created by FontForge 20170910 at Fri Jun  4 04:48:48 2004
 By Jimmy Wärting
Digitized data (C) 2004 Agfa Monotype Corporation. Neo Sans(TM) is a trademark of Agfa Monotype Corporation and may be registered in certain jurisdictions.  All rights reserved. Neo Sans is designed by Sebastian Lester.
</metadata>
<defs>
<font id="NeoSans-LightItalic" horiz-adv-x="580" >
  <font-face 
    font-family="NeoSans"
    font-weight="300"
    font-style="italic"
    font-stretch="normal"
    units-per-em="1000"
    panose-1="2 0 5 6 2 0 0 9 0 4"
    ascent="800"
    descent="-200"
    x-height="537"
    cap-height="743"
    bbox="-76 -195 870 748"
    underline-thickness="50"
    underline-position="-100"
    slope="-11"
    stemh="41"
    stemv="39"
    unicode-range="U+0020-007A"
  />
<missing-glyph horiz-adv-x="500" 
 />
    <glyph glyph-name=".notdef" horiz-adv-x="500" 
 />
    <glyph glyph-name="space" unicode=" " horiz-adv-x="215" 
 />
    <glyph glyph-name="ampersand" unicode="&#x26;" horiz-adv-x="637" 
d="M639 365c0 -2 -1 -4 -1 -6l-2 -11c-16 -90 -53 -176 -110 -240l71 -95c1 -1 2 -3 2 -4c0 -5 -5 -9 -10 -9h-27c-6 0 -10 0 -15 7l-51 67c-57 -50 -132 -80 -221 -80c-101 0 -198 42 -198 142c0 10 0 20 2 31l2 6c13 73 48 122 190 204c-36 53 -87 122 -87 190
c0 7 1 15 2 22l1 6c20 122 115 153 218 153c82 0 159 -36 159 -123c0 -9 -1 -19 -3 -30l-1 -6c-14 -82 -63 -129 -192 -200l-38 -21c21 -29 45 -61 75 -100l97 -128c46 56 77 130 91 208l2 11c2 11 8 19 19 19h12c10 0 13 -6 13 -13zM519 624c0 67 -54 84 -121 84
c-85 0 -151 -26 -166 -113l-1 -6c-1 -8 -2 -15 -2 -22c0 -61 43 -118 80 -169l42 25c123 73 154 103 164 166l1 6c2 10 3 20 3 29zM474 105l-101 133c-31 41 -58 77 -80 108c-112 -64 -153 -97 -166 -173l-2 -6c-2 -10 -2 -20 -2 -29c0 -80 71 -104 159 -104
c78 0 144 28 192 71z" />
    <glyph glyph-name="comma" unicode="," horiz-adv-x="168" 
d="M147 98c0 -3 -2 -7 -4 -11l-92 -168c-7 -13 -13 -19 -23 -19h-12c-6 0 -8 3 -8 7c0 3 2 7 4 12l82 168c7 14 14 19 24 19h19c6 0 10 -3 10 -8z" />
    <glyph glyph-name="hyphen" unicode="-" horiz-adv-x="344" 
d="M342 284v-3l-2 -8c-2 -10 -11 -16 -22 -16h-202c-10 0 -16 5 -16 13v3l2 8c2 10 11 18 22 18h202c10 0 16 -6 16 -15z" />
    <glyph glyph-name="period" unicode="." horiz-adv-x="168" 
d="M121 90v-3l-13 -74c-2 -11 -12 -19 -22 -19h-6c-9 0 -16 6 -16 16v3l13 74c2 10 13 19 23 19h6c9 0 15 -7 15 -16z" />
    <glyph glyph-name="zero" unicode="0" 
d="M619 551c0 -25 -3 -52 -8 -81l-35 -197c-34 -191 -126 -279 -279 -279c-113 0 -189 64 -189 199c0 24 3 51 8 80l35 197c36 201 139 278 279 278c118 0 189 -66 189 -197zM575 551c0 109 -54 157 -152 157c-120 0 -201 -88 -228 -238l-35 -197c-5 -29 -8 -55 -8 -78
c0 -108 54 -161 152 -161c115 0 200 81 228 239l35 197c5 30 8 57 8 81z" />
    <glyph glyph-name="one" unicode="1" 
d="M454 727v-3l-125 -705c-2 -10 -10 -19 -20 -19h-10c-10 0 -14 7 -14 15v4l120 676l-151 -64c-6 -2 -10 -4 -14 -4c-5 0 -7 3 -7 8v3l3 15c2 8 5 11 16 16l170 74h16c9 0 16 -7 16 -16z" />
    <glyph glyph-name="two" unicode="2" 
d="M607 611c0 -12 -2 -25 -4 -38c-15 -85 -53 -122 -169 -192l-114 -69c-145 -88 -163 -139 -179 -231l-7 -40h346c9 0 18 -3 18 -12v-2v-1l-2 -11c-2 -11 -12 -15 -23 -15h-371c-10 0 -16 8 -16 17v2v1l10 61c18 109 51 176 202 267l114 69c100 61 131 89 143 156
c2 14 4 26 4 37c0 68 -46 96 -165 96c-42 0 -102 -5 -155 -15c-2 0 -4 -1 -6 -1c-8 0 -13 4 -13 12v3v1l2 11c2 10 12 14 22 16c53 11 105 15 158 15c137 0 205 -47 205 -137z" />
    <glyph glyph-name="three" unicode="3" 
d="M618 606c0 -13 -2 -26 -4 -41l-2 -12c-11 -64 -50 -131 -134 -165c56 -27 79 -84 79 -133c0 -10 -1 -20 -3 -29l-4 -20c-30 -150 -123 -212 -285 -212c-53 0 -106 7 -143 15c-9 2 -15 8 -15 16v1v1l1 6c2 10 9 16 19 16h3h1c41 -7 95 -13 141 -13c131 0 207 51 231 170
l4 20c2 9 3 17 3 27c0 54 -31 116 -120 116h-187c-10 0 -16 6 -16 15v2v1l1 7c2 11 12 18 23 18h187c116 0 158 88 167 141l2 12c2 15 4 28 4 40c0 80 -56 101 -181 101c-46 0 -103 -8 -146 -15h-1h-3c-8 0 -13 5 -13 13v2v1l1 8c1 9 11 16 21 18c40 7 96 15 149 15
c137 0 220 -37 220 -142z" />
    <glyph glyph-name="four" unicode="4" 
d="M587 241v-1l-2 -9c-2 -11 -12 -15 -22 -15h-100l-35 -197c-2 -10 -8 -19 -18 -19h-12c-10 0 -14 7 -14 15v3v1l35 197h-275c-37 0 -57 20 -57 45c0 19 10 37 22 51l352 411c19 23 35 25 51 25c19 0 37 -10 37 -36c0 -4 0 -8 -1 -12l-78 -442h100c9 0 17 -6 17 -15v-2z
M503 695v2c0 2 -1 3 -4 3c-4 0 -6 -2 -9 -6l-344 -401c-6 -6 -15 -17 -15 -26c0 -7 6 -9 18 -9h277l77 436v1z" />
    <glyph glyph-name="five" unicode="5" 
d="M615 730v-3l-2 -11c-2 -11 -12 -14 -22 -14h-303l-65 -266h78c194 0 253 -59 253 -152c0 -14 0 -28 -3 -44l-4 -25c-23 -146 -132 -221 -292 -221c-71 0 -117 10 -151 18c-8 2 -16 7 -16 16v3l2 11c2 9 8 13 16 13c2 0 5 0 8 -1c27 -7 91 -18 148 -18
c126 0 222 59 241 179l4 25c2 14 3 32 3 44c0 81 -68 111 -216 111h-106c-10 0 -17 7 -17 16c0 2 0 4 1 6l77 309c2 10 14 17 23 17h326c9 0 17 -4 17 -13z" />
    <glyph glyph-name="six" unicode="6" 
d="M626 714c0 -1 0 -2 -1 -3l-2 -10c-1 -9 -9 -14 -19 -14c-2 0 -5 0 -8 1c-37 9 -77 18 -153 18c-133 0 -212 -55 -240 -218l-10 -59c53 13 125 23 194 23c102 0 187 -43 187 -156c0 -163 -89 -302 -277 -302c-123 0 -187 63 -187 177c0 25 3 52 8 82l41 235
c33 187 123 260 291 260c71 0 117 -10 156 -19c8 -2 20 -6 20 -15zM529 293c0 94 -60 118 -149 118c-68 0 -150 -13 -195 -24l-23 -134c-5 -32 -8 -58 -8 -82c0 -98 47 -137 146 -137c153 0 229 109 229 259z" />
    <glyph glyph-name="seven" unicode="7" 
d="M629 698c0 -9 -2 -18 -8 -27l-429 -661c-3 -5 -14 -10 -20 -10h-15c-9 0 -13 5 -13 11c0 5 2 11 6 16l432 659c1 2 2 5 2 7c0 4 -2 7 -7 7h-374c-10 0 -16 7 -16 15v4l2 8c2 10 11 16 22 16h375c25 0 43 -21 43 -45z" />
    <glyph glyph-name="eight" unicode="8" 
d="M636 599c0 -11 -1 -21 -3 -33l-4 -22c-14 -77 -64 -133 -131 -156c48 -28 77 -85 77 -138c0 -8 -1 -16 -2 -23l-5 -30c-23 -140 -127 -203 -270 -203c-121 0 -201 59 -201 164c0 12 1 25 3 39l5 30c9 55 52 130 133 163c-52 23 -79 76 -79 128c0 9 0 17 2 26l4 22
c23 129 119 182 266 182c127 0 205 -56 205 -149zM589 597c0 76 -60 109 -166 109c-116 0 -193 -40 -211 -140l-4 -22c-2 -9 -2 -18 -2 -27c0 -51 28 -105 125 -105h82c114 0 159 75 169 132l4 22c2 11 3 21 3 31zM528 249c0 49 -24 120 -123 120h-82
c-112 0 -163 -95 -171 -142l-5 -30c-2 -13 -3 -26 -3 -38c0 -84 57 -123 161 -123c122 0 198 55 216 161l5 30c1 7 2 14 2 22z" />
    <glyph glyph-name="nine" unicode="9" 
d="M616 571c0 -25 -3 -52 -8 -82l-41 -235c-33 -187 -123 -260 -291 -260c-71 0 -117 10 -156 19c-8 2 -19 6 -19 15v3l2 10c2 9 10 14 19 14c3 0 5 0 8 -1c37 -9 77 -18 153 -18c133 0 212 55 240 218l10 59c-53 -13 -125 -23 -194 -23c-102 0 -187 43 -187 156
c0 163 89 302 277 302c123 0 187 -63 187 -177zM572 571c0 98 -46 137 -146 137c-153 0 -229 -109 -229 -259c0 -94 60 -118 149 -118c68 0 151 13 195 24l23 134c5 32 8 58 8 82z" />
    <glyph glyph-name="semicolon" unicode=";" horiz-adv-x="178" 
d="M203 526v-3l-13 -74c-2 -11 -12 -19 -22 -19h-6c-9 0 -16 6 -16 16v3l13 74c2 10 13 19 23 19h6c9 0 15 -7 15 -16zM135 98c0 -3 -2 -7 -4 -11l-92 -168c-7 -13 -13 -19 -23 -19h-12c-6 0 -8 3 -8 7c0 3 2 7 4 12l82 168c7 14 14 19 24 19h19c6 0 10 -3 10 -8z" />
    <glyph glyph-name="A" unicode="A" horiz-adv-x="619" 
d="M583 18c0 -12 -6 -21 -19 -21h-10c-8 0 -12 6 -13 13l-36 271h-288l-130 -271c-3 -6 -12 -13 -19 -13h-15c-8 0 -13 5 -13 12c0 4 2 8 4 13l324 677c16 33 41 49 74 49c32 0 51 -18 55 -48l86 -678v-4zM501 325l-45 362c-1 10 -9 20 -19 20c-12 0 -22 -8 -27 -19
l-174 -363h265z" />
    <glyph glyph-name="B" unicode="B" 
d="M627 605c0 -12 -1 -24 -3 -38l-2 -11c-16 -87 -66 -142 -148 -168c62 -23 95 -74 95 -136c0 -10 0 -21 -2 -32l-3 -17c-31 -177 -174 -210 -316 -210c-52 0 -105 3 -149 8c-11 1 -16 5 -16 13c0 2 1 4 1 6l123 703c2 10 13 18 23 19c41 3 103 6 154 6
c140 0 243 -33 243 -143zM583 599c0 95 -93 110 -209 110c-44 0 -92 -3 -126 -4l-51 -293h181c140 0 186 69 200 144l2 11c2 12 3 22 3 32zM526 254c0 63 -36 115 -156 115h-181l-58 -330c42 -3 75 -6 124 -6c114 0 239 25 265 170l3 17c2 12 3 23 3 34z" />
    <glyph glyph-name="C" unicode="C" horiz-adv-x="537" 
d="M624 723v-2l-2 -12c-2 -10 -7 -12 -15 -12h-4h-2c-35 4 -110 9 -172 9c-118 0 -213 -69 -248 -269l-23 -132c-6 -36 -9 -67 -9 -94c0 -131 67 -175 162 -175c62 0 138 5 175 9h2h4c8 0 11 -2 11 -8v-4l-2 -12c-2 -10 -13 -16 -22 -17c-27 -3 -83 -10 -175 -10
c-105 0 -199 57 -199 218c0 28 3 59 9 93l23 132c42 243 165 311 300 311c92 0 145 -7 171 -10c8 -1 16 -6 16 -15z" />
    <glyph glyph-name="D" unicode="D" horiz-adv-x="613" 
d="M637 521c0 -27 -2 -56 -8 -88l-22 -124c-41 -232 -168 -315 -347 -315c-80 0 -135 3 -163 8c-8 1 -13 8 -13 16v3l123 700c2 9 11 17 20 19c30 5 86 8 166 8c144 0 244 -65 244 -227zM594 521c0 146 -88 188 -208 188c-58 0 -93 -3 -138 -6l-117 -666c43 -3 78 -4 136 -4
c139 0 259 70 296 276l22 124c6 33 9 62 9 88z" />
    <glyph glyph-name="E" unicode="E" horiz-adv-x="533" 
d="M606 729v-3l-1 -8c-1 -10 -11 -16 -22 -16h-258c-51 0 -79 -9 -90 -71l-39 -220h335c9 0 17 -4 17 -13v-3l-2 -10c-2 -10 -11 -17 -22 -17h-335l-45 -256c-2 -9 -2 -17 -2 -24c0 -40 25 -47 66 -47h258c9 0 16 -4 16 -13v-3l-1 -8c-1 -10 -11 -17 -22 -17h-258
c-65 0 -104 27 -104 85c0 8 1 17 3 27l91 519c15 87 60 112 141 112h258c10 0 16 -5 16 -14z" />
    <glyph glyph-name="F" unicode="F" horiz-adv-x="518" 
d="M606 728v-3l-1 -8c-1 -10 -11 -15 -22 -15h-258c-48 0 -79 -9 -90 -71l-39 -220h335c10 0 17 -6 17 -15v-3l-2 -10c-2 -10 -11 -15 -22 -15h-335l-62 -349c-2 -10 -10 -19 -20 -19h-10c-9 0 -14 7 -14 15v4l108 612c15 84 57 112 141 112h258c10 0 16 -7 16 -15z" />
    <glyph glyph-name="G" unicode="G" horiz-adv-x="588" 
d="M635 725v-3l-1 -10c-1 -11 -7 -15 -18 -15h-4h-2c-70 7 -101 10 -174 10c-100 0 -219 -63 -256 -274l-22 -124c-6 -35 -9 -67 -9 -95c0 -127 62 -178 168 -178c85 0 138 7 154 9l56 318c2 11 10 19 20 19h10c9 0 14 -6 14 -15v-3v-1l-59 -337c-2 -10 -12 -18 -21 -19
c-49 -6 -96 -13 -181 -13c-122 0 -205 72 -205 223c0 28 3 59 9 92l22 124c46 258 190 315 307 315c90 0 136 -5 178 -10c9 -1 14 -4 14 -13z" />
    <glyph glyph-name="H" unicode="H" horiz-adv-x="647" 
d="M695 728v-4l-125 -705c-2 -10 -9 -19 -20 -19h-9c-10 0 -14 7 -14 15v4l63 358h-400l-63 -358c-2 -10 -10 -19 -20 -19h-10c-9 0 -14 7 -14 15v4l125 705c2 10 10 19 20 19h10c9 0 14 -7 14 -15v-4l-54 -306h400l54 306c2 10 9 19 20 19h9c10 0 14 -7 14 -15z" />
    <glyph glyph-name="I" unicode="I" horiz-adv-x="224" 
d="M262 728v-4l-125 -705c-2 -10 -10 -19 -20 -19h-10c-9 0 -14 7 -14 15v4l125 705c2 10 10 19 20 19h10c9 0 14 -7 14 -15z" />
    <glyph glyph-name="J" unicode="J" horiz-adv-x="224" 
d="M262 728v-4l-139 -784c-17 -98 -55 -135 -167 -135h-14c-10 0 -18 2 -18 11v3l2 10c2 11 11 15 22 15h14c82 0 103 17 117 96l139 784c2 10 10 19 20 19h10c9 0 14 -7 14 -15z" />
    <glyph glyph-name="K" unicode="K" horiz-adv-x="544" 
d="M637 730c0 -6 -4 -14 -13 -22l-392 -325l280 -353c4 -5 6 -10 6 -15c0 -9 -8 -17 -20 -17c-7 0 -18 2 -23 8l-286 362l-62 -349c-2 -10 -10 -19 -20 -19h-10c-9 0 -14 7 -14 15v4l125 705c2 10 12 19 22 19h6c9 0 16 -7 16 -16v-3l-57 -320l399 332c11 9 19 11 25 11
c11 0 18 -9 18 -17z" />
    <glyph glyph-name="L" unicode="L" horiz-adv-x="483" 
d="M452 26v-1l-1 -8c-1 -10 -11 -17 -22 -17h-228c-61 0 -104 20 -104 82c0 9 1 19 3 30l108 612c2 10 10 19 20 19h10c9 0 14 -7 14 -15v-3v-1l-108 -612c-2 -11 -3 -20 -3 -28c0 -36 21 -43 67 -43h228c10 0 16 -5 16 -14v-1z" />
    <glyph glyph-name="M" unicode="M" horiz-adv-x="730" 
d="M774 709c0 -3 0 -6 -1 -9l-120 -681c-2 -10 -10 -19 -20 -19h-11c-9 0 -14 7 -14 15v4l120 681v1c0 4 -4 5 -6 5c-4 0 -6 -5 -9 -9l-243 -373c-13 -19 -29 -32 -53 -32c-22 0 -35 13 -41 32l-111 373c-1 4 -6 9 -10 9c-2 0 -8 -1 -9 -6l-120 -681c-2 -10 -10 -19 -20 -19
h-9c-9 0 -14 7 -14 15v4l120 681c7 37 28 48 55 48c28 0 39 -16 44 -31l111 -366c3 -9 5 -13 11 -13s9 4 15 13l239 365c16 25 30 32 58 32c20 0 38 -15 38 -39z" />
    <glyph glyph-name="N" unicode="N" horiz-adv-x="651" 
d="M699 728v-4l-120 -680c-6 -32 -28 -50 -53 -50s-38 7 -46 32l-218 673c-1 4 -5 7 -9 7c-2 0 -5 -2 -6 -7l-120 -680c-2 -10 -10 -19 -20 -19h-10c-9 0 -14 7 -14 15v4l120 680c7 37 34 49 55 49c26 0 39 -14 45 -31l218 -674c1 -4 2 -7 6 -7c1 0 6 4 7 8l120 680
c2 10 9 19 19 19h12c10 0 14 -7 14 -15z" />
    <glyph glyph-name="O" unicode="O" horiz-adv-x="632" 
d="M657 525c0 -28 -3 -58 -9 -92l-22 -124c-41 -229 -162 -315 -311 -315c-124 0 -210 68 -210 222c0 28 3 59 9 93l22 124c42 237 162 315 312 315c125 0 209 -71 209 -223zM613 527c0 136 -72 179 -173 179c-122 0 -223 -66 -260 -273l-22 -124c-6 -36 -9 -67 -9 -95
c0 -133 69 -178 173 -178c124 0 225 77 260 273l22 124c6 35 9 67 9 94z" />
    <glyph glyph-name="P" unicode="P" horiz-adv-x="540" 
d="M605 587c0 -13 -1 -27 -4 -42l-3 -17c-28 -157 -134 -214 -307 -214c-39 0 -83 2 -111 4l-53 -299c-2 -10 -10 -19 -20 -19h-10c-9 0 -14 7 -14 15v3v1l125 705c2 9 11 18 20 19c35 2 93 5 136 5c152 0 241 -52 241 -161zM561 587c0 93 -71 122 -204 122
c-42 0 -80 -1 -109 -3l-61 -349c31 -2 74 -4 108 -4c153 0 237 51 259 175l3 17c3 15 4 29 4 42z" />
    <glyph glyph-name="Q" unicode="Q" horiz-adv-x="632" 
d="M657 525c0 -28 -3 -58 -9 -92l-22 -124c-39 -218 -151 -306 -290 -314l-12 -67c-3 -18 -5 -32 -5 -43c0 -35 19 -41 83 -41h21c10 0 18 -4 18 -13v-3l-2 -7c-2 -11 -11 -16 -22 -16h-21c-76 0 -120 9 -120 79c0 13 1 27 4 44l12 67c-112 8 -187 77 -187 221
c0 28 3 59 9 93l22 124c42 237 162 315 312 315c125 0 209 -71 209 -223zM613 527c0 136 -72 179 -173 179c-122 0 -223 -66 -260 -273l-22 -124c-6 -36 -9 -67 -9 -95c0 -133 69 -178 173 -178c124 0 225 77 260 273l22 124c6 35 9 67 9 94z" />
    <glyph glyph-name="R" unicode="R" horiz-adv-x="598" 
d="M626 593c0 -15 -2 -32 -5 -49l-1 -5c-26 -131 -99 -185 -214 -199l147 -311c2 -4 3 -8 3 -12c0 -9 -5 -17 -17 -17h-10c-5 0 -12 4 -15 9l-156 326h-46c-39 0 -129 1 -129 1l-56 -317c-2 -10 -10 -19 -20 -19h-10c-9 0 -14 7 -14 16v3l125 706c2 9 11 18 20 19
c35 2 114 4 157 4c157 0 241 -49 241 -155zM582 590c0 89 -69 116 -205 116c-42 0 -98 -1 -129 -4l-57 -324c27 0 103 -1 132 -1c155 0 228 35 253 162l1 5c3 17 5 32 5 46z" />
    <glyph glyph-name="S" unicode="S" horiz-adv-x="530" 
d="M582 724v-1l-2 -13c-1 -9 -8 -13 -18 -13h-3c-37 3 -96 9 -147 9c-97 0 -211 -17 -211 -138c0 -54 40 -93 109 -139l52 -35c110 -74 149 -126 149 -186c0 -156 -130 -214 -269 -214c-57 0 -111 6 -153 11c-8 1 -15 5 -15 14v2l2 13c2 10 8 12 15 12h5
c51 -5 98 -11 153 -11c115 0 215 42 215 168c0 55 -34 90 -129 155l-51 35c-77 53 -128 101 -128 170c0 150 136 185 265 185c53 0 105 -6 147 -10c9 -1 14 -5 14 -12v-2z" />
    <glyph glyph-name="T" unicode="T" horiz-adv-x="571" 
d="M669 729v-4l-2 -9c-2 -10 -10 -14 -21 -14h-214l-121 -683c-2 -10 -10 -19 -20 -19h-10c-9 0 -14 7 -14 15v4l121 683h-215c-10 0 -17 6 -17 14v3l2 9c2 10 11 15 22 15h473c10 0 16 -6 16 -14z" />
    <glyph glyph-name="U" unicode="U" horiz-adv-x="633" 
d="M681 727v-3l-81 -460c-30 -172 -111 -270 -284 -270c-136 0 -197 73 -197 192c0 24 3 50 8 78l81 460c2 10 10 19 20 19h10c9 0 14 -7 14 -16v-3l-81 -460c-5 -29 -8 -55 -8 -79c0 -99 47 -150 160 -150c133 0 207 79 233 229l81 460c2 10 10 19 20 19h10
c9 0 14 -7 14 -16z" />
    <glyph glyph-name="V" unicode="V" horiz-adv-x="630" 
d="M715 729c0 -4 -1 -7 -3 -11l-324 -675c-16 -34 -40 -49 -72 -49s-54 15 -58 49l-86 675v5c0 11 5 20 16 20h12c7 0 13 -6 14 -14l85 -673c2 -16 9 -21 20 -21s21 5 29 21l322 673c4 8 11 14 18 14h12c9 0 15 -6 15 -14z" />
    <glyph glyph-name="W" unicode="W" horiz-adv-x="788" 
d="M870 729c0 -3 -1 -6 -2 -9l-243 -679c-12 -33 -29 -47 -54 -47c-30 0 -37 21 -40 45l-54 387c-1 10 -3 12 -6 12s-5 -2 -10 -12l-190 -387c-12 -24 -26 -45 -56 -45c-25 0 -40 14 -40 47l-3 679c0 12 8 23 20 23h8c8 0 15 -5 15 -16l1 -677c0 -11 2 -15 5 -15
c4 0 5 5 10 15l193 389c14 29 28 39 54 39c22 0 32 -13 36 -39l57 -389c1 -10 2 -15 6 -15c3 0 6 4 10 15l240 677c4 11 13 16 21 16h8c9 0 14 -6 14 -14z" />
    <glyph glyph-name="X" unicode="X" horiz-adv-x="602" 
d="M679 731c0 -6 -2 -12 -7 -18l-281 -335l169 -349c3 -6 5 -12 5 -17c0 -7 -4 -12 -13 -12h-10c-5 0 -12 5 -14 9l-163 336l-282 -336c-6 -7 -9 -9 -18 -9h-10c-9 0 -13 5 -13 11s3 12 8 18l296 354l-160 330c-4 8 -6 14 -6 19c0 7 4 11 14 11h12c5 0 11 -5 13 -9l154 -318
l266 318c6 7 9 9 18 9h9c9 0 13 -5 13 -12z" />
    <glyph glyph-name="Y" unicode="Y" horiz-adv-x="550" 
d="M634 732c0 -4 -2 -9 -6 -16l-219 -349c-23 -37 -42 -52 -58 -58l-51 -290c-2 -10 -10 -19 -20 -19h-10c-9 0 -14 7 -14 15v4l51 290c-14 6 -26 21 -36 58l-97 349c-1 3 -1 6 -1 9c0 12 8 18 20 18h8c6 0 12 -6 14 -12l95 -350c8 -29 12 -35 24 -35s18 6 36 35l219 350
c4 6 12 12 18 12h12c9 0 15 -4 15 -11z" />
    <glyph glyph-name="Z" unicode="Z" horiz-adv-x="595" 
d="M628 700c0 -12 -5 -23 -13 -34l-484 -611c-3 -3 -4 -6 -4 -8c0 -4 4 -6 11 -6h383c10 0 19 -6 19 -14v-1v-1l-2 -10c-2 -10 -13 -15 -24 -15h-385c-31 0 -47 22 -47 45c0 11 4 23 11 32l486 612c3 3 4 6 4 8c0 3 -2 5 -7 5h-362c-9 0 -19 6 -19 15v1v1l2 10
c2 10 14 14 24 14h355c35 0 52 -20 52 -43z" />
    <glyph glyph-name="a" unicode="a" horiz-adv-x="504" 
d="M524 511c0 -2 -1 -4 -1 -7l-85 -484c-2 -11 -11 -20 -22 -20h-8c-10 0 -15 7 -15 16c0 1 1 3 1 4l6 33c-53 -28 -112 -59 -172 -59c-82 0 -145 46 -145 144c0 15 2 31 5 48l20 113c31 173 101 243 239 243c57 0 121 -10 164 -19c9 -2 13 -5 13 -12zM476 490
c-35 6 -88 13 -136 13c-112 0 -165 -73 -188 -204l-20 -113c-3 -17 -5 -34 -5 -48c0 -87 53 -105 111 -105c51 0 97 24 169 62z" />
    <glyph glyph-name="b" unicode="b" horiz-adv-x="504" 
d="M508 375c0 -22 -2 -46 -6 -72l-11 -66c-25 -150 -91 -243 -235 -243c-57 0 -126 10 -169 19c-9 2 -12 6 -12 11c0 3 0 5 1 8l122 692c2 10 10 19 20 19h10c9 0 14 -7 14 -15v-3v-1l-34 -195c40 8 89 13 138 13c107 0 162 -56 162 -167zM465 377c0 85 -37 126 -125 126
c-39 0 -101 -7 -140 -15l-78 -442c35 -6 88 -13 136 -13c116 0 167 72 189 204l11 66c5 27 7 52 7 74z" />
    <glyph glyph-name="c" unicode="c" horiz-adv-x="437" 
d="M484 517v-2l-1 -7c-1 -10 -10 -14 -20 -14h-3h-1c-46 6 -84 9 -117 9c-114 0 -171 -86 -190 -200l-11 -67c-4 -27 -7 -51 -7 -73c0 -83 35 -130 125 -130c33 0 72 3 120 9h1h3c9 0 15 -3 15 -11v-2v-1l-1 -7c-2 -11 -7 -16 -22 -18c-43 -5 -91 -9 -123 -9
c-115 0 -161 70 -161 172c0 22 2 46 6 70l11 67c24 143 96 239 241 239c32 0 78 -4 119 -9c12 -2 16 -5 16 -13v-3z" />
    <glyph glyph-name="d" unicode="d" horiz-adv-x="504" 
d="M562 725v-1l-122 -692c-2 -12 -6 -16 -19 -19c-46 -9 -113 -19 -170 -19c-111 0 -160 71 -160 175c0 21 2 44 6 68l11 66c28 166 109 239 239 239c39 0 98 -6 136 -15l35 197c2 14 10 19 20 19h10c9 0 14 -7 14 -15v-3zM476 490c-37 8 -97 13 -136 13
c-106 0 -166 -68 -188 -200l-11 -66c-5 -27 -7 -52 -7 -74c0 -84 35 -130 123 -130c50 0 106 6 141 13z" />
    <glyph glyph-name="e" unicode="e" horiz-adv-x="511" 
d="M516 372c0 -22 -2 -44 -6 -68l-5 -27c-2 -11 -14 -19 -24 -19h-337l-3 -21c-3 -24 -6 -46 -6 -65c0 -108 57 -138 150 -138c44 0 101 6 152 16c3 1 6 1 9 1c7 0 12 -1 12 -8c0 -2 0 -5 -1 -7l-2 -7c-4 -14 -8 -15 -23 -18c-50 -10 -108 -17 -153 -17
c-110 0 -187 51 -187 176c0 20 1 44 5 67l11 66c26 157 111 239 244 239c114 0 164 -71 164 -170zM473 374c0 83 -36 129 -127 129c-111 0 -168 -77 -193 -200l-1 -5h313l1 6c4 27 7 49 7 70z" />
    <glyph glyph-name="f" unicode="f" horiz-adv-x="377" 
d="M472 733c0 -2 -1 -3 -1 -4l-2 -7c-3 -9 -8 -13 -23 -13h-50c-47 0 -72 -13 -83 -79l-16 -93h119c10 0 16 -5 16 -13v-3l-2 -9c-2 -10 -11 -16 -22 -16h-119l-95 -539c-17 -96 -63 -118 -134 -118c-30 0 -38 1 -51 3c-12 2 -18 6 -18 12c0 2 1 3 1 4l2 7c3 9 8 13 23 13
h50c47 0 72 17 83 79l95 539h-99c-10 0 -16 5 -16 13v3l2 9c2 10 11 16 22 16h99l16 93c16 93 63 118 134 118c30 0 38 -1 51 -3c12 -2 18 -6 18 -12z" />
    <glyph glyph-name="g" unicode="g" horiz-adv-x="504" 
d="M524 512c0 -2 -1 -4 -1 -7l-89 -506c-28 -159 -92 -194 -215 -194c-68 0 -132 9 -151 13c-13 3 -17 7 -17 14c0 1 1 3 1 5l1 5c2 9 8 14 17 14h4c24 -4 85 -12 145 -12c111 0 146 27 172 155l2 10c-30 -9 -96 -15 -132 -15c-77 0 -172 24 -172 166c0 22 2 47 7 75l12 68
c33 186 111 239 249 239c59 0 123 -11 154 -18c9 -2 13 -5 13 -12zM476 489c-35 6 -77 14 -125 14c-108 0 -171 -40 -199 -200l-12 -68c-5 -31 -8 -57 -8 -80c0 -106 58 -122 136 -122c32 0 95 8 130 17z" />
    <glyph glyph-name="h" unicode="h" horiz-adv-x="504" 
d="M507 399c0 -16 -2 -32 -5 -49l-59 -331c-2 -10 -9 -19 -20 -19h-10c-9 0 -13 7 -13 15v3v1l59 331c3 18 5 34 5 49c0 69 -37 104 -126 104c-43 0 -98 -8 -138 -19l-83 -465c-2 -10 -10 -19 -20 -19h-10c-9 0 -14 7 -14 15v3v1l125 705c2 10 10 19 20 19h10
c9 0 14 -7 14 -15v-3v-1l-35 -199c41 10 94 17 138 17c116 0 162 -60 162 -143z" />
    <glyph glyph-name="i" unicode="i" horiz-adv-x="204" 
d="M253 733v-4l-14 -74c-3 -15 -12 -19 -22 -19h-6c-11 0 -16 6 -16 14v5l14 74c3 16 12 19 22 19h6c11 0 16 -7 16 -15zM215 522v-4l-88 -499c-2 -10 -12 -19 -22 -19h-6c-9 0 -16 7 -16 16v3l88 499c2 10 10 19 20 19h11c9 0 13 -7 13 -15z" />
    <glyph glyph-name="j" unicode="j" horiz-adv-x="204" 
d="M253 733v-4l-14 -74c-3 -15 -12 -19 -22 -19h-6c-11 0 -16 6 -16 14v5l14 74c3 16 12 19 22 19h6c11 0 16 -7 16 -15zM215 523v-5l-106 -604c-15 -83 -45 -109 -122 -109c-17 0 -27 1 -42 3c-11 2 -14 6 -14 12v2l1 9c1 9 4 12 17 12h44c46 0 61 11 72 71l106 604
c2 10 10 19 20 19h11c9 0 13 -6 13 -14z" />
    <glyph glyph-name="k" unicode="k" horiz-adv-x="444" 
d="M500 529c0 -6 -4 -14 -13 -21l-285 -226l202 -259c3 -4 5 -9 5 -13c0 -9 -7 -16 -20 -16c-12 0 -22 2 -30 12l-197 259l-45 -246c-2 -10 -12 -19 -22 -19h-6c-9 0 -16 7 -16 16v3l125 705c2 10 12 19 22 19h6c9 0 16 -7 16 -16v-3l-75 -421l287 230c8 6 14 9 28 9
c13 0 18 -5 18 -13z" />
    <glyph glyph-name="l" unicode="l" horiz-adv-x="204" 
d="M252 728v-4l-125 -705c-2 -10 -10 -19 -20 -19h-10c-9 0 -14 7 -14 15v4l125 705c2 10 10 19 20 19h10c9 0 14 -7 14 -15z" />
    <glyph glyph-name="m" unicode="m" horiz-adv-x="746" 
d="M746 416c0 -12 -2 -25 -4 -39l-63 -358c-2 -10 -9 -19 -20 -19h-10c-10 0 -14 7 -14 15v4l63 358c2 14 4 27 4 38c0 65 -39 88 -101 88c-44 0 -93 -14 -138 -34c3 -11 4 -24 4 -39s-2 -31 -5 -49l-64 -362c-2 -10 -7 -19 -18 -19h-15c-9 0 -11 7 -11 14v5l64 362
c3 17 5 33 5 46c0 53 -25 76 -77 76c-44 0 -101 -20 -151 -42l-78 -442c-2 -10 -8 -19 -18 -19h-14c-9 0 -12 7 -12 15v4l88 498c2 11 11 20 22 20h8c10 0 14 -7 14 -15v-5l-3 -18c56 25 97 43 152 43c36 0 75 -11 95 -41c54 24 106 41 159 41c74 0 138 -36 138 -126z" />
    <glyph glyph-name="n" unicode="n" horiz-adv-x="521" 
d="M518 399c0 -15 -2 -31 -5 -48l-59 -332c-2 -10 -11 -19 -22 -19h-7c-9 0 -15 7 -15 16v3l59 332c3 16 4 31 4 45c0 79 -48 107 -112 107c-51 0 -112 -17 -166 -41l-78 -443c-2 -10 -12 -19 -22 -19h-6c-9 0 -16 7 -16 16v3l88 498c2 11 11 20 22 20h8c9 0 14 -7 14 -15
v-5l-3 -16c56 25 109 41 161 41c84 0 155 -40 155 -143z" />
    <glyph glyph-name="o" unicode="o" horiz-adv-x="522" 
d="M526 369c0 -21 -2 -42 -6 -66l-12 -70c-26 -153 -105 -239 -248 -239c-112 0 -170 66 -170 175c0 20 2 41 6 64l12 70c27 156 108 239 249 239c114 0 169 -66 169 -173zM483 372c0 84 -38 131 -133 131c-113 0 -177 -80 -198 -200l-12 -70c-4 -25 -7 -48 -7 -69
c0 -84 38 -131 134 -131c115 0 176 80 197 200l12 70c4 25 7 48 7 69z" />
    <glyph glyph-name="p" unicode="p" horiz-adv-x="504" 
d="M509 371c0 -22 -2 -47 -7 -72l-12 -66c-30 -164 -105 -239 -238 -239c-39 0 -98 7 -136 16l-33 -186c-2 -10 -10 -19 -20 -19h-10c-9 0 -14 7 -14 16v3l120 680c2 12 5 16 18 19c43 9 101 19 172 19c111 0 160 -69 160 -171zM466 378c0 84 -38 125 -124 125
c-48 0 -111 -9 -142 -15l-77 -440c37 -8 97 -15 136 -15c106 0 164 71 187 200l12 66c5 29 8 56 8 79z" />
    <glyph glyph-name="q" unicode="q" horiz-adv-x="504" 
d="M524 511c0 -2 -1 -4 -1 -7l-120 -680c-2 -10 -10 -19 -20 -19h-10c-9 0 -14 7 -14 16v3l33 185c-44 -10 -87 -15 -126 -15c-102 0 -177 41 -177 165c0 22 2 47 7 74l12 66c29 158 106 243 236 243c57 0 124 -10 167 -19c9 -2 13 -5 13 -12zM476 490c-35 6 -84 13 -132 13
c-112 0 -168 -72 -192 -204l-12 -66c-5 -26 -7 -50 -7 -70c0 -101 56 -131 133 -131c40 0 83 5 132 15z" />
    <glyph glyph-name="r" unicode="r" horiz-adv-x="309" 
d="M366 530v-3l-1 -8c-2 -13 -10 -15 -26 -15c-38 0 -78 -10 -144 -47l-78 -438c-2 -10 -12 -19 -22 -19h-6c-9 0 -16 7 -16 16v3l88 498c2 11 11 20 22 20h8c9 0 15 -4 15 -14c0 -2 -1 -4 -1 -6l-4 -21c54 33 93 46 142 46c15 0 23 -2 23 -12z" />
    <glyph glyph-name="s" unicode="s" horiz-adv-x="440" 
d="M463 518v-2l-1 -8c-1 -12 -5 -14 -15 -14c-1 0 -7 1 -8 1c-24 2 -88 8 -138 8c-83 0 -130 -20 -130 -95c0 -35 31 -62 81 -93l60 -37c79 -49 103 -78 103 -128c0 -118 -95 -156 -199 -156c-43 0 -108 7 -143 14c-8 2 -19 4 -19 14v2l2 11c2 10 5 12 12 12c3 0 5 0 9 -1
c54 -8 112 -13 148 -13c88 0 146 30 146 117c0 33 -22 54 -87 93l-58 35c-56 34 -99 74 -99 128c0 104 83 136 174 136c72 0 111 -5 144 -9c9 -1 18 -5 18 -15z" />
    <glyph glyph-name="t" unicode="t" horiz-adv-x="380" 
d="M432 525v-4l-2 -10c-2 -10 -11 -15 -22 -15h-118l-70 -394c-2 -11 -3 -19 -3 -27c0 -38 23 -42 60 -42h48c9 0 18 -2 18 -11v-3l-1 -6c-1 -8 -6 -14 -20 -16c-15 -2 -35 -3 -52 -3c-61 0 -97 21 -97 77c0 9 1 20 3 31l70 394h-100c-9 0 -16 4 -16 13v4l2 10
c2 12 11 14 22 14h100l16 93c2 10 9 19 20 19h11c9 0 13 -6 13 -14v-5l-16 -93h118c9 0 16 -2 16 -12z" />
    <glyph glyph-name="u" unicode="u" horiz-adv-x="522" 
d="M544 521v-3l-89 -499c-2 -11 -11 -20 -22 -20h-8c-9 0 -13 7 -13 16v3v1l2 16c-56 -25 -109 -42 -161 -42c-84 0 -154 41 -154 144c0 15 1 30 4 48l60 333c2 10 11 19 22 19h7c9 0 15 -7 15 -16v-3l-60 -333c-3 -17 -4 -34 -4 -48c0 -79 48 -105 112 -105
c51 0 112 18 166 42l79 444c2 10 12 19 22 19h6c9 0 16 -7 16 -16z" />
    <glyph glyph-name="v" unicode="v" horiz-adv-x="480" 
d="M534 526c0 -4 -2 -9 -4 -14l-211 -455c-25 -53 -50 -63 -79 -63c-28 0 -53 10 -59 63l-51 455v4c0 12 6 21 18 21h10c7 0 14 -4 15 -18l48 -451c3 -30 13 -36 24 -36s20 6 34 36l208 451c6 14 14 18 21 18h14c8 0 12 -4 12 -11z" />
    <glyph glyph-name="w" unicode="w" horiz-adv-x="752" 
d="M794 522c0 -3 -1 -6 -2 -9l-191 -463c-16 -38 -32 -56 -60 -56c-34 0 -39 22 -43 59l-39 378c-1 10 -2 12 -5 12s-5 -2 -9 -12l-173 -378c-17 -37 -29 -59 -63 -59c-28 0 -38 18 -40 56l-29 463v1c0 12 10 23 23 23h4c8 0 13 -7 13 -14l27 -463c1 -25 5 -27 9 -27
s7 4 17 26l176 386c12 26 30 38 49 38s34 -12 37 -38l40 -386c2 -22 6 -26 10 -26s8 2 18 27l189 463c3 7 11 14 19 14h8c10 0 15 -7 15 -15z" />
    <glyph glyph-name="x" unicode="x" horiz-adv-x="493" 
d="M537 526c0 -5 -2 -11 -7 -16l-209 -238l132 -247c2 -4 4 -9 4 -13c0 -6 -4 -12 -15 -12h-11c-8 0 -12 1 -16 8l-124 231l-204 -231c-3 -4 -10 -8 -14 -8h-12c-12 0 -16 5 -16 12c0 4 2 8 5 12l221 252l-127 237c-2 3 -2 7 -2 11c0 7 4 13 15 13h10c9 0 14 -5 16 -8
l120 -219l191 219c5 6 14 8 20 8h9c10 0 14 -5 14 -11z" />
    <glyph glyph-name="y" unicode="y" horiz-adv-x="486" 
d="M539 525c0 -4 -1 -8 -3 -13l-264 -568c-47 -102 -82 -139 -186 -139c-23 0 -44 3 -61 6c-11 2 -18 4 -18 12v2l2 11c2 10 9 14 19 14h5c15 -2 47 -6 63 -6c72 0 100 25 137 109l21 47h-12c-31 0 -45 8 -51 56l-55 457v3c0 12 9 21 21 21h7c7 0 12 -7 13 -14l54 -460
c2 -21 4 -22 19 -22h23l222 483c3 7 13 13 21 13h11c8 0 12 -5 12 -12z" />
    <glyph glyph-name="z" unicode="z" horiz-adv-x="446" 
d="M481 496c0 -17 -6 -32 -20 -47l-358 -389c-4 -5 -8 -9 -9 -12c0 -5 4 -7 9 -7h290c8 0 18 -3 18 -12v-3l-2 -10c-2 -10 -12 -16 -23 -16h-289c-27 0 -44 21 -44 44c0 12 4 25 15 36l367 397c4 4 5 8 5 11c0 4 -3 8 -12 8h-263c-8 0 -17 3 -17 12v3l2 10c2 10 12 16 23 16
h255c37 0 53 -18 53 -41z" />
  </font>
</defs>
</svg>
